<svg width="72" height="72" viewBox="0 0 72 72" fill="none" xmlns="http://www.w3.org/2000/svg">
<path d="M13.588 35.586C13.588 35.586 9.41998 40.752 9.91998 43.919L7.08698 46.419V47.919C7.08698 47.919 13.92 50.752 20.42 48.752V51.252L20.587 53.752L23.92 55.085C23.92 55.085 27.753 54.419 28.753 49.085C28.753 49.085 32.753 50.585 34.42 54.919L39.087 54.585C39.087 54.585 39.753 52.085 38.92 50.419L59.42 50.085L61.42 51.919V53.919L62.42 55.085H64.587L66.253 53.252L64.42 46.752L65.92 42.085C65.92 42.085 48.587 52.585 24.587 38.919L22.754 35.085C22.754 35.085 18.92 35.752 19.087 36.752C19.087 36.752 18.253 34.086 13.587 35.586H13.588Z" fill="#9B9B9A"/>
<path d="M24.9166 26.333C24.0606 28.583 23.0836 29.627 22.3026 30.419C22.0355 30.6942 21.6762 30.8613 21.2935 30.8882C20.9109 30.9152 20.5318 30.8001 20.2286 30.565L19.0446 29.639L15.6206 34.693C15.398 35.0217 15.0981 35.2908 14.7474 35.4768C14.3966 35.6628 14.0057 35.76 13.6086 35.76C13.6086 35.76 10.9366 39.031 10.0066 42.566C9.74664 43.557 9.12464 44.416 8.30264 45.028L7.92164 45.313C7.92164 45.313 5.57164 47.275 8.37664 48.128C8.37664 48.128 17.9996 51.167 23.3326 46.917M41.8326 22C41.8326 22 40.0086 23.227 38.6326 23.489C38.0426 23.602 37.4706 23.719 36.9176 23.839L33.7496 23.167C32.1786 24.962 29.9956 25.817 28.4586 26.491M60.4166 28.5C58.4306 28.5 57.8666 28.347 56.7466 27.443C55.8782 26.7443 55.1425 25.8951 54.5746 24.936L54.1666 24.246C51.5256 24.246 48.6996 23.926 46.1186 23.502M66.7076 38.195C63.6116 37.041 63.1736 33.78 62.1496 32.46M21.2716 51.44L21.0446 51.913C20.898 52.2179 20.8311 52.5549 20.8501 52.8927C20.8692 53.2305 20.9736 53.5579 21.1536 53.8443C21.3337 54.1307 21.5834 54.3668 21.8795 54.5304C22.1756 54.6941 22.5083 54.7799 22.8466 54.78H24.4736C24.8342 54.7802 25.1882 54.6829 25.498 54.4984C25.8078 54.3139 26.062 54.0491 26.2336 53.732L29.0786 48.469C29.0786 48.469 32.5796 49.919 33.8326 53.505C34.1056 54.286 34.8816 54.78 35.7086 54.78H37.7316C38.012 54.7807 38.2894 54.7224 38.5457 54.6088C38.802 54.4952 39.0315 54.3288 39.2192 54.1206C39.4069 53.9124 39.5487 53.667 39.6353 53.4003C39.7219 53.1337 39.7513 52.8518 39.7216 52.573C39.6186 51.645 39.4306 50.683 39.0886 50.26C39.0886 50.26 54.2446 50.697 59.0956 49.648C60.1196 49.426 61.1396 50.046 61.3656 51.069C61.4756 51.565 61.5406 52.121 61.5076 52.706C61.4436 53.846 62.3606 54.78 63.5016 54.78H63.8916C65.0156 54.78 65.8916 53.98 65.9646 52.938C66.0876 51.194 65.9506 48.546 64.4166 46.507C64.4166 46.507 65.5496 45.515 65.5286 42.42M19.6636 36.913C19.6636 36.913 21.7876 33.586 23.6836 36.571C24.9626 38.586 23.3756 41.613 22.2086 43.369C21.9397 43.7726 21.5393 44.0704 21.0754 44.2119C20.6116 44.3534 20.113 44.3298 19.6646 44.145M27.8746 34.292L32.8746 30.167M31.9996 39.815L37.9996 37.757M37.3746 32.46L43.4216 29.667M40.3976 43.167L47.2496 42.42M49.2496 36.328L56.1246 37.56M47.3976 32.185L52.8516 29.682M53.4936 43.464L59.7546 45.141" stroke="#195557" stroke-width="2" stroke-miterlimit="10" stroke-linecap="round" stroke-linejoin="round"/>
</svg>
