<svg width="18" height="18" viewBox="0 0 18 18" fill="none" xmlns="http://www.w3.org/2000/svg">
<g filter="url(#filter0_d_1345_252)">
<path d="M13.6936 3.06522C13.5529 2.73927 13.3499 2.44389 13.0961 2.19563C12.842 1.94663 12.5425 1.74875 12.2139 1.61276C11.873 1.47118 11.5075 1.39871 11.1384 1.39956C10.6207 1.39956 10.1155 1.54134 9.67651 1.80915C9.57149 1.87321 9.47172 1.94358 9.3772 2.02024C9.28268 1.94358 9.18291 1.87321 9.07788 1.80915C8.63889 1.54134 8.13373 1.39956 7.61596 1.39956C7.24313 1.39956 6.88185 1.47097 6.54053 1.61276C6.21076 1.74928 5.91354 1.94568 5.65834 2.19563C5.40418 2.44361 5.20115 2.73906 5.06076 3.06522C4.91478 3.40445 4.84021 3.76467 4.84021 4.1354C4.84021 4.48513 4.91163 4.84956 5.05341 5.22029C5.17208 5.53011 5.34222 5.85148 5.55962 6.176C5.90409 6.68956 6.37775 7.22518 6.96587 7.76815C7.94049 8.66819 8.90565 9.28993 8.94661 9.31513L9.19551 9.47477C9.30578 9.54513 9.44756 9.54513 9.55784 9.47477L9.80674 9.31513C9.8477 9.28888 10.8118 8.66819 11.7875 7.76815C12.3756 7.22518 12.8493 6.68956 13.1937 6.176C13.4111 5.85148 13.5823 5.53011 13.6999 5.22029C13.8417 4.84956 13.9131 4.48513 13.9131 4.1354C13.9142 3.76467 13.8396 3.40445 13.6936 3.06522ZM9.3772 8.64404C9.3772 8.64404 5.63838 6.24846 5.63838 4.1354C5.63838 3.06522 6.52373 2.19773 7.61596 2.19773C8.38368 2.19773 9.04953 2.62623 9.3772 3.25216C9.70487 2.62623 10.3707 2.19773 11.1384 2.19773C12.2307 2.19773 13.116 3.06522 13.116 4.1354C13.116 6.24846 9.3772 8.64404 9.3772 8.64404Z" fill="#195557"/>
<path d="M11.1384 2.19775C10.3707 2.19775 9.70485 2.62625 9.37718 3.25218C9.04951 2.62625 8.38366 2.19775 7.61595 2.19775C6.52371 2.19775 5.63837 3.06524 5.63837 4.13543C5.63837 6.24849 9.37718 8.64406 9.37718 8.64406C9.37718 8.64406 13.116 6.24849 13.116 4.13543C13.116 3.06524 12.2307 2.19775 11.1384 2.19775Z" fill="black" fill-opacity="0.1"/>
</g>
<defs>
<filter id="filter0_d_1345_252" x="0" y="0.086792" width="18.7543" height="18.7543" filterUnits="userSpaceOnUse" color-interpolation-filters="sRGB">
<feFlood flood-opacity="0" result="BackgroundImageFix"/>
<feColorMatrix in="SourceAlpha" type="matrix" values="0 0 0 0 0 0 0 0 0 0 0 0 0 0 0 0 0 0 127 0" result="hardAlpha"/>
<feOffset dy="4"/>
<feGaussianBlur stdDeviation="2"/>
<feComposite in2="hardAlpha" operator="out"/>
<feColorMatrix type="matrix" values="0 0 0 0 0 0 0 0 0 0 0 0 0 0 0 0 0 0 0.25 0"/>
<feBlend mode="normal" in2="BackgroundImageFix" result="effect1_dropShadow_1345_252"/>
<feBlend mode="normal" in="SourceGraphic" in2="effect1_dropShadow_1345_252" result="shape"/>
</filter>
</defs>
</svg>
