<svg width="28" height="31" viewBox="0 0 28 31" fill="none" xmlns="http://www.w3.org/2000/svg">
<g filter="url(#filter0_d_1345_412)">
<path d="M19.6658 4L18.4966 5.16919L18.8013 5.47388L16.948 7.32719L18.0904 8.49556L19.9453 6.61544L21.1129 7.78381L19.2336 9.63631L20.4019 10.7795L22.2553 8.92619L22.5599 9.23088L23.7291 8.06169L19.6658 4ZM15.1971 6.84375L14.0279 8.01294L14.5617 8.54594L6.48787 16.6449L6.20838 16.9236L6.25956 17.3055L6.53825 19.8949L6.56425 20.1736L6.63981 20.2248L4 22.8654H6.31075L7.96175 21.2153L10.4236 21.4688L10.8055 21.5199L11.0842 21.2404L19.184 13.1658L19.717 13.6996L20.8854 12.5313L15.1971 6.84375ZM15.7301 9.7135L18.0156 11.9983L10.2205 19.8186L8.29081 19.5903L8.13806 19.4375L7.90975 17.5078L15.7301 9.7135Z" fill="white"/>
</g>
<defs>
<filter id="filter0_d_1345_412" x="-3" y="0" width="34" height="34" filterUnits="userSpaceOnUse" color-interpolation-filters="sRGB">
<feFlood flood-opacity="0" result="BackgroundImageFix"/>
<feColorMatrix in="SourceAlpha" type="matrix" values="0 0 0 0 0 0 0 0 0 0 0 0 0 0 0 0 0 0 127 0" result="hardAlpha"/>
<feOffset dy="4"/>
<feGaussianBlur stdDeviation="2"/>
<feColorMatrix type="matrix" values="0 0 0 0 0 0 0 0 0 0 0 0 0 0 0 0 0 0 0.25 0"/>
<feBlend mode="normal" in2="BackgroundImageFix" result="effect1_dropShadow_1345_412"/>
<feBlend mode="normal" in="SourceGraphic" in2="effect1_dropShadow_1345_412" result="shape"/>
</filter>
</defs>
</svg>
